<?xml version="1.0" standalone="no"?>
<!DOCTYPE svg PUBLIC "-//W3C//DTD SVG 20010904//EN"
 "http://www.w3.org/TR/2001/REC-SVG-20010904/DTD/svg10.dtd">
<svg version="1.0" xmlns="http://www.w3.org/2000/svg"
 width="500.000000pt" height="223.000000pt" viewBox="0 0 500.000000 223.000000"
 preserveAspectRatio="xMidYMid meet">

<g transform="translate(0.000000,223.000000) scale(0.100000,-0.100000)"
fill="#000000" stroke="none">
<path d="M2645 1681 c-114 -28 -187 -146 -169 -276 16 -123 88 -194 204 -203
72 -5 117 11 152 52 17 21 17 21 18 -16 0 -37 1 -38 35 -38 l35 0 0 130 0 130
-95 0 -95 0 0 -35 0 -35 56 0 c53 0 55 -1 49 -22 -20 -68 -78 -104 -152 -95
-85 9 -125 63 -126 168 0 64 24 123 64 151 54 40 170 18 200 -39 14 -26 33
-28 66 -10 22 12 22 13 4 44 -47 77 -151 117 -246 94z"/>
<path d="M1935 1453 c-49 -125 -92 -233 -93 -240 -3 -11 7 -13 40 -11 42 3 43
4 62 56 l19 53 95 -3 95 -3 17 -50 c16 -48 18 -50 58 -53 26 -2 42 1 42 8 0 6
-41 114 -92 240 l-91 230 -31 0 -31 0 -90 -227z m154 16 c17 -44 31 -83 31
-85 0 -2 -27 -4 -60 -4 -33 0 -60 3 -60 8 0 8 54 162 56 162 1 0 16 -36 33
-81z"/>
<path d="M3190 1440 l0 -240 40 0 40 0 0 105 0 105 29 0 c27 0 35 -9 85 -94
31 -52 56 -100 56 -105 0 -6 22 -11 51 -11 37 0 48 3 43 13 -31 54 -101 166
-113 181 -14 17 -14 20 -1 24 8 3 30 20 48 38 28 28 32 39 32 83 0 42 -5 56
-31 85 -38 44 -79 56 -191 56 l-88 0 0 -240z m208 144 c26 -18 29 -60 5 -86
-12 -13 -31 -18 -75 -18 l-58 0 0 60 0 60 53 0 c31 0 61 -6 75 -16z"/>
<path d="M3777 1673 c-4 -3 -7 -111 -7 -240 l0 -233 45 0 45 0 0 240 0 240
-38 0 c-21 0 -42 -3 -45 -7z"/>
<path d="M330 1410 c-25 -25 -26 -52 -2 -73 25 -23 55 -21 77 3 16 17 31 20
111 20 64 0 97 -4 106 -13 7 -8 49 -60 93 -116 44 -56 101 -130 128 -163 26
-33 47 -64 47 -69 0 -5 -38 -9 -85 -9 -72 0 -88 3 -105 20 -25 25 -52 26 -73
2 -22 -24 -21 -55 1 -75 25 -23 48 -21 69 3 16 19 30 20 191 20 l174 0 -19
-29 c-10 -15 -34 -47 -53 -71 -19 -24 -57 -69 -83 -101 l-48 -59 -90 0 c-76 0
-94 3 -118 21 -23 17 -33 19 -50 10 -32 -17 -42 -43 -28 -72 16 -32 60 -37 84
-10 15 19 29 21 119 21 l102 0 28 33 c16 18 68 84 117 145 l87 112 171 0 c150
0 170 -2 165 -15 -3 -9 -74 -101 -157 -205 l-152 -190 -102 0 c-80 0 -105 3
-115 16 -8 9 -25 14 -44 12 -36 -4 -58 -46 -40 -76 15 -23 67 -27 84 -8 10 13
35 16 121 16 l109 0 177 223 178 222 143 3 c116 2 142 5 142 17 0 12 -31 15
-182 17 l-182 3 -115 147 -116 148 -108 0 c-83 0 -112 4 -123 15 -23 23 -61
18 -79 -9 -16 -23 -11 -54 9 -68 19 -13 66 -9 72 7 5 12 27 15 113 14 l106 0
96 -122 c53 -67 95 -125 92 -129 -2 -5 -100 -8 -216 -8 l-212 0 -44 58 c-25
31 -94 121 -155 199 l-111 143 -107 0 c-95 0 -110 2 -128 20 -11 11 -27 20
-35 20 -8 0 -24 -9 -35 -20z m48 -37 c-4 -22 -22 -20 -26 1 -2 10 3 16 13 16
10 0 15 -7 13 -17z m567 -104 c0 -7 -8 -15 -17 -17 -18 -3 -25 18 -11 32 10
10 28 1 28 -15z m-265 -294 c0 -8 -7 -15 -15 -15 -8 0 -15 7 -15 15 0 8 7 15
15 15 8 0 15 -7 15 -15z m-42 -292 c2 -8 -5 -13 -17 -13 -12 0 -21 6 -21 16 0
18 31 15 38 -3z m260 -156 c2 -10 -3 -17 -12 -17 -18 0 -29 16 -21 31 9 14 29
6 33 -14z"/>
<path d="M1967 1149 c-58 -14 -95 -36 -112 -69 -34 -65 -9 -101 52 -75 31 13
58 15 149 10 79 -5 118 -4 134 5 32 17 22 -7 -14 -34 -24 -18 -40 -21 -119
-19 -107 3 -160 -9 -193 -42 -33 -33 -30 -65 10 -104 39 -38 93 -53 156 -45
82 12 155 66 218 164 35 54 92 171 92 188 0 5 -33 7 -72 4 -44 -2 -106 2 -157
12 -92 18 -90 18 -144 5z"/>
<path d="M2460 945 c0 -138 1 -145 20 -145 19 0 20 7 20 94 0 52 4 97 8 100 4
3 35 -40 67 -95 48 -79 64 -99 82 -99 23 0 23 1 23 146 0 145 0 145 -22 142
-21 -3 -23 -8 -25 -92 -1 -49 -4 -91 -6 -92 -3 -4 -27 31 -93 138 -21 34 -35
48 -51 48 -23 0 -23 -1 -23 -145z"/>
<path d="M2860 945 l0 -145 95 0 c95 0 95 0 95 25 0 24 -2 25 -70 25 l-70 0 0
40 0 40 65 0 c58 0 65 2 65 20 0 18 -7 20 -65 20 l-65 0 0 40 0 40 70 0 c63 0
70 2 70 20 0 19 -7 20 -95 20 l-95 0 0 -145z"/>
<path d="M3212 970 c4 -140 14 -159 92 -167 92 -11 126 41 126 192 0 95 0 95
-25 95 -25 0 -25 0 -25 -95 0 -52 -5 -106 -12 -120 -10 -23 -17 -26 -52 -23
-55 4 -66 28 -66 146 0 87 -1 92 -21 92 -20 0 -21 -4 -17 -120z"/>
<path d="M3600 944 c0 -145 0 -145 23 -142 20 3 22 9 25 66 4 85 25 84 75 -3
31 -53 42 -65 63 -65 l25 0 -26 43 c-44 71 -52 90 -37 95 15 5 42 54 42 77 0
9 -13 30 -29 46 -27 26 -36 29 -95 29 l-66 0 0 -146z m130 92 c6 -8 10 -25 8
-38 -2 -19 -10 -23 -45 -26 l-43 -3 0 40 c0 40 1 41 34 41 18 0 39 -7 46 -14z"/>
<path d="M4024 1053 c-8 -21 -25 -63 -36 -93 -11 -30 -29 -74 -39 -97 -24 -54
-24 -63 4 -63 17 0 26 9 36 35 12 35 13 35 71 35 58 0 59 0 70 -35 9 -27 17
-35 35 -35 22 0 22 1 8 43 -7 23 -33 88 -55 145 -47 115 -66 129 -94 65z m58
-93 l16 -50 -39 0 c-21 0 -39 3 -39 7 0 15 33 93 39 93 4 0 14 -22 23 -50z"/>
<path d="M4338 968 c-4 -182 -12 -168 88 -168 83 0 84 0 84 25 0 24 -2 25 -65
25 l-65 0 0 120 c0 112 -1 120 -19 120 -18 0 -20 -9 -23 -122z"/>
</g>
</svg>
